# xmcd
#
# Track frame offsets: 
#        150
#        15925
#        30680
#        45300
#        58668
#        75225
#        93217
#        110573
#        124050
#        138226
#
# Disc length: 2098 seconds
#
# Revision: 0
# Processed by: cddbd v1.5.2PL0 Copyright (c) Steve Scherf et al.
# Submitted via: ExactAudioCopy v1.3
#
DISCID=6c08300a
DTITLE=Spats - Spats
DYEAR=1978
DGENRE=Soul
TTITLE0=Hot Summer Madness
TTITLE1=Soul Searchin’ Lady
TTITLE2=(Your Lovin’ Is) Everywhere
TTITLE3=Someday
TTITLE4=Playin’ Time
TTITLE5=Up To The Country
TTITLE6=Livin’ Is What You Make It
TTITLE7=Yours Forever
TTITLE8=Street Love
TTITLE9=Put Some Souf In Yo’ Mouf
EXTD=
EXTT0=
EXTT1=
EXTT2=
EXTT3=
EXTT4=
EXTT5=
EXTT6=
EXTT7=
EXTT8=
EXTT9=
PLAYORDER=
